<?xml version="1.0" encoding="UTF-8" standalone="no"?>
<svg width="200px" height="50px" viewBox="0 0 200 50" version="1.1" xmlns="http://www.w3.org/2000/svg" xmlns:xlink="http://www.w3.org/1999/xlink">
    <!-- Generator: Sketch 49.1 (51147) - http://www.bohemiancoding.com/sketch -->
    <title>Group 25</title>
    <desc>Created with Sketch.</desc>
    <defs></defs>
    <g id="Website" stroke="none" stroke-width="1" fill="none" fill-rule="evenodd">
        <g id="Group-25">
            <rect id="Rectangle-9" fill="#FFFFFF" x="0" y="0" width="200" height="50"></rect>
            <g id="Group-4" transform="translate(27.000000, 9.000000)">
                <path d="M41.2229247,1.40973111 C36.8270065,0.500457289 31.0201279,0 24.8700427,0 C18.7199575,0 12.9130788,0.500457289 8.51771328,1.40973111 C2.70641331,2.61093836 0,4.41027986 0,7.0711542 C0,7.26705689 0.0160273608,7.45802085 0.0425554063,7.60728004 C0.4471081,11.8474483 3.54315208,33 24.8700427,33 C46.1908539,33 49.2929772,11.8474483 49.6931086,7.64349735 C49.724058,7.45637461 49.7400853,7.26541065 49.7400853,7.0711542 C49.7400853,4.41027986 47.033672,2.61093836 41.2229247,1.40973111 L41.2229247,1.40973111 Z M24.8700427,11.1296872 C11.3412921,11.1296872 3.03414521,8.76568502 3.03414521,7.0711542 C3.03414521,5.37607463 11.3407395,3.01262118 24.8700427,3.01262118 C38.3993459,3.01262118 46.7048348,5.37662338 46.7048348,7.0711542 C46.7048348,8.76568502 38.3987932,11.1296872 24.8700427,11.1296872 L24.8700427,11.1296872 Z" id="Shape" fill="#FAD46B"></path>
                <path d="M66.7583867,25.6001451 C65.4352956,25.6001451 64.6910569,24.861186 64.6910569,23.520112 L64.6910569,9.39778146 C64.6910569,8.0840763 65.4352956,7.34511715 66.7583867,7.34511715 L74.3661605,7.34511715 C77.8668389,7.34511715 79.6585248,9.56199461 79.6585248,11.9978229 C79.6585248,14.296807 78.2251761,15.829463 76.4886191,16.1852581 C78.4456913,16.4863156 80.016862,18.3747667 80.016862,20.6737508 C80.016862,23.4106365 78.1700473,25.6001451 74.6693688,25.6001451 L66.7583867,25.6001451 Z M68.6052014,14.679971 L73.5116641,14.679971 C74.8347552,14.679971 75.6616871,13.8315364 75.6616871,12.6546755 C75.6616871,11.5325524 74.8347552,10.6567489 73.5116641,10.6567489 L68.6052014,10.6567489 L68.6052014,14.679971 Z M68.6052014,22.2885134 L73.6494861,22.2885134 C75.1379636,22.2885134 76.0200243,21.4400788 76.0200243,20.1263736 C76.0200243,18.9768816 75.1930924,17.9916027 73.6494861,17.9916027 L68.6052014,17.9916027 L68.6052014,22.2885134 Z M99.9252481,23.136948 C100.007941,23.32853 100.090634,23.5748497 100.090634,23.8211694 C100.090634,24.9159237 99.1810094,25.7917271 98.0784335,25.7917271 C97.2239371,25.7917271 96.4796984,25.24435 96.2316188,24.478022 L95.4873801,22.3432511 L87.2180608,22.3432511 L86.4738221,24.478022 C86.2257425,25.24435 85.4539394,25.7917271 84.599443,25.7917271 C83.4968671,25.7917271 82.6148064,24.9159237 82.6148064,23.8211694 C82.6148064,23.5748497 82.6699352,23.32853 82.7526284,23.136948 L88.1276859,9.34304375 C88.6238451,8.05670744 89.864243,7.15353514 91.3527205,7.15353514 C92.8136335,7.15353514 94.0815958,8.05670744 94.577755,9.34304375 L99.9252481,23.136948 Z M88.4308943,18.9768816 L94.2745466,18.9768816 L91.3527205,10.7114866 L88.4308943,18.9768816 Z M103.239867,24.094858 C104.893731,25.24435 107.016189,25.9285714 109.7175,25.9285714 C114.679092,25.9285714 117.077194,23.4106365 117.077194,20.0716359 C117.077194,16.021045 113.218179,15.1178727 110.186095,14.4336513 C108.063636,13.9410118 106.52003,13.5578478 106.52003,12.3262492 C106.52003,11.2314949 107.45722,10.4651669 109.496985,10.4651669 C110.792512,10.4651669 112.225861,10.8483309 113.659209,11.6420278 C113.907289,11.8062409 114.238062,11.9157164 114.596399,11.9157164 C115.561153,11.9157164 116.388085,11.0946506 116.388085,10.1093718 C116.388085,9.45251918 116.002183,8.85040431 115.478459,8.57671574 C113.714338,7.56406801 111.867523,7.07142857 109.772629,7.07142857 C105.169375,7.07142857 102.523193,9.53462575 102.523193,12.5725689 C102.523193,16.6505287 106.382208,17.4715944 109.386728,18.1558159 C111.509186,18.6484553 113.107921,19.1137259 113.107921,20.4821688 C113.107921,21.5221854 112.060474,22.5348331 109.910451,22.5348331 C108.063636,22.5348331 106.547595,21.9600871 105.279632,21.0842836 C104.976424,20.8653328 104.618087,20.7558574 104.232185,20.7558574 C103.239867,20.7558574 102.412935,21.5769231 102.412935,22.5895708 C102.412935,23.2190545 102.743708,23.7664317 103.239867,24.094858 Z M122.569401,25.7917271 C123.644412,25.7917271 124.498909,24.8885548 124.498909,23.8485383 L124.498909,9.09672403 C124.498909,8.02933859 123.644412,7.15353514 122.569401,7.15353514 C121.466825,7.15353514 120.584764,8.02933859 120.584764,9.09672403 L120.584764,23.8485383 C120.584764,24.8885548 121.466825,25.7917271 122.569401,25.7917271 Z M143.056639,25.7917271 C144.37973,25.7917271 145.454742,24.7243417 145.454742,23.4106365 L145.454742,9.09672403 C145.454742,8.02933859 144.572681,7.15353514 143.49767,7.15353514 C142.395094,7.15353514 141.540597,8.02933859 141.540597,9.09672403 L141.540597,19.1684636 L133.65718,8.22092059 C133.188585,7.56406801 132.416782,7.15353514 131.562285,7.15353514 C130.128937,7.15353514 128.998796,8.30302716 128.998796,9.6988389 L128.998796,23.8485383 C128.998796,24.8885548 129.880857,25.7917271 130.983433,25.7917271 C132.058445,25.7917271 132.912941,24.8885548 132.912941,23.8485383 L132.912941,13.338897 L141.099567,24.7790794 C141.540597,25.4085631 142.257272,25.7917271 143.056639,25.7917271 Z" id="BASIN" fill="#2B3137"></path>
            </g>
        </g>
    </g>
</svg>